<svg xmlns="http://www.w3.org/2000/svg" viewBox="0 0 512 512" width="64" height="64">
  <path fill="#25D366" d="M256 48c-114.69 0-208 93.31-208 208s93.31 208 208 208 208-93.31 208-208S370.69 48 256 48zm80 320a16 16 0 0 1-16 16H192a16 16 0 0 1-16-16V256a16 16 0 0 1 16-16h64a16 16 0 0 1 16 16v64h64a16 16 0 0 1 16 16z"/>
  <path fill="#fff" d="M256 144c-52.94 0-96 43.06-96 96s43.06 96 96 96 96-43.06 96-96-43.06-96-96-96zm0 144c-35.29 0-64-28.71-64-64s28.71-64 64-64 64 28.71 64 64-28.71 64-64 64z"/>
</svg>
